<mxfile host="app.diagrams.net" modified="2024-03-13T13:24:37.497Z" agent="Mozilla/5.0 (Windows NT 10.0; Win64; x64) AppleWebKit/537.36 (KHTML, like Gecko) Chrome/122.0.0.0 Safari/537.36" etag="Sp0g1mUl7jbO11XT-lis" version="24.0.5" type="github">
  <diagram name="Сторінка-1" id="ET311KVmUt8QttRTWKVb">
    <mxGraphModel dx="1339" dy="1759" grid="1" gridSize="10" guides="1" tooltips="1" connect="1" arrows="1" fold="1" page="1" pageScale="1" pageWidth="827" pageHeight="1169" math="0" shadow="0">
      <root>
        <mxCell id="0" />
        <mxCell id="1" parent="0" />
        <mxCell id="l8_VYTfNV-PSis1PAyHx-5" value="" style="edgeStyle=orthogonalEdgeStyle;rounded=0;orthogonalLoop=1;jettySize=auto;html=1;" edge="1" parent="1" source="l8_VYTfNV-PSis1PAyHx-1" target="l8_VYTfNV-PSis1PAyHx-2">
          <mxGeometry relative="1" as="geometry" />
        </mxCell>
        <mxCell id="l8_VYTfNV-PSis1PAyHx-1" value="Inet" style="ellipse;shape=cloud;whiteSpace=wrap;html=1;align=center;fillColor=#70FAFF;" vertex="1" parent="1">
          <mxGeometry x="210" y="-1160" width="190" height="90" as="geometry" />
        </mxCell>
        <mxCell id="l8_VYTfNV-PSis1PAyHx-6" value="" style="edgeStyle=orthogonalEdgeStyle;rounded=0;orthogonalLoop=1;jettySize=auto;html=1;" edge="1" parent="1" source="l8_VYTfNV-PSis1PAyHx-2" target="l8_VYTfNV-PSis1PAyHx-3">
          <mxGeometry relative="1" as="geometry" />
        </mxCell>
        <mxCell id="l8_VYTfNV-PSis1PAyHx-2" value="EdgeRouter&lt;div&gt;LetsEncrypt&lt;/div&gt;&lt;div&gt;nat, dnat&lt;/div&gt;&lt;div&gt;vpn&lt;/div&gt;" style="verticalLabelPosition=middle;verticalAlign=middle;html=1;shape=mxgraph.basic.patternFillRect;fillStyle=diag;step=5;fillStrokeWidth=0.2;fillStrokeColor=#dddddd;labelPosition=center;align=center;" vertex="1" parent="1">
          <mxGeometry x="215" y="-1030" width="180" height="71" as="geometry" />
        </mxCell>
        <mxCell id="l8_VYTfNV-PSis1PAyHx-7" value="" style="edgeStyle=orthogonalEdgeStyle;rounded=0;orthogonalLoop=1;jettySize=auto;html=1;entryX=0.5;entryY=0;entryDx=0;entryDy=0;entryPerimeter=0;" edge="1" parent="1" source="l8_VYTfNV-PSis1PAyHx-3" target="l8_VYTfNV-PSis1PAyHx-4">
          <mxGeometry relative="1" as="geometry">
            <mxPoint x="409.99999999999955" y="-520" as="targetPoint" />
          </mxGeometry>
        </mxCell>
        <mxCell id="l8_VYTfNV-PSis1PAyHx-3" value="Nginx reverse proxy&lt;div&gt;ip filtr&lt;/div&gt;" style="verticalLabelPosition=middle;verticalAlign=middle;html=1;shape=mxgraph.basic.patternFillRect;fillStyle=diag;step=5;fillStrokeWidth=0.2;fillStrokeColor=#dddddd;labelPosition=center;align=center;" vertex="1" parent="1">
          <mxGeometry x="163.5" y="-920" width="283" height="80" as="geometry" />
        </mxCell>
        <mxCell id="l8_VYTfNV-PSis1PAyHx-10" value="vlan 378 192.168.78.0/24" style="swimlane;startSize=23;" vertex="1" parent="1">
          <mxGeometry y="-780" width="820" height="310" as="geometry" />
        </mxCell>
        <mxCell id="l8_VYTfNV-PSis1PAyHx-12" value="rodc&lt;div&gt;on site&lt;/div&gt;" style="verticalLabelPosition=middle;verticalAlign=middle;html=1;shape=mxgraph.basic.patternFillRect;fillStyle=diag;step=5;fillStrokeWidth=0.2;fillStrokeColor=#dddddd;labelPosition=center;align=center;" vertex="1" parent="l8_VYTfNV-PSis1PAyHx-10">
          <mxGeometry x="380" y="40" width="100" height="120" as="geometry" />
        </mxCell>
        <mxCell id="l8_VYTfNV-PSis1PAyHx-4" value="IIS 1C" style="verticalLabelPosition=middle;verticalAlign=middle;html=1;shape=mxgraph.basic.patternFillRect;fillStyle=diag;step=5;fillStrokeWidth=0.2;fillStrokeColor=#dddddd;labelPosition=center;align=center;fillColor=#FFD342;" vertex="1" parent="l8_VYTfNV-PSis1PAyHx-10">
          <mxGeometry x="185" y="80" width="100" height="120" as="geometry" />
        </mxCell>
        <mxCell id="l8_VYTfNV-PSis1PAyHx-13" value="" style="edgeStyle=orthogonalEdgeStyle;rounded=0;orthogonalLoop=1;jettySize=auto;html=1;" edge="1" parent="l8_VYTfNV-PSis1PAyHx-10" source="l8_VYTfNV-PSis1PAyHx-4" target="l8_VYTfNV-PSis1PAyHx-12">
          <mxGeometry relative="1" as="geometry" />
        </mxCell>
        <mxCell id="l8_VYTfNV-PSis1PAyHx-8" value="SQL server" style="verticalLabelPosition=middle;verticalAlign=middle;html=1;shape=mxgraph.basic.patternFillRect;fillStyle=diag;step=5;fillStrokeWidth=0.2;fillStrokeColor=#dddddd;labelPosition=center;align=center;" vertex="1" parent="l8_VYTfNV-PSis1PAyHx-10">
          <mxGeometry x="35" y="80" width="100" height="120" as="geometry" />
        </mxCell>
        <mxCell id="l8_VYTfNV-PSis1PAyHx-11" value="" style="edgeStyle=orthogonalEdgeStyle;rounded=0;orthogonalLoop=1;jettySize=auto;html=1;" edge="1" parent="l8_VYTfNV-PSis1PAyHx-10" source="l8_VYTfNV-PSis1PAyHx-4" target="l8_VYTfNV-PSis1PAyHx-8">
          <mxGeometry relative="1" as="geometry" />
        </mxCell>
        <mxCell id="l8_VYTfNV-PSis1PAyHx-28" value="" style="edgeStyle=orthogonalEdgeStyle;rounded=0;orthogonalLoop=1;jettySize=auto;html=1;" edge="1" parent="l8_VYTfNV-PSis1PAyHx-10" source="l8_VYTfNV-PSis1PAyHx-22">
          <mxGeometry relative="1" as="geometry">
            <mxPoint x="290" y="180" as="targetPoint" />
          </mxGeometry>
        </mxCell>
        <mxCell id="l8_VYTfNV-PSis1PAyHx-22" value="RDP" style="verticalLabelPosition=middle;verticalAlign=middle;html=1;shape=mxgraph.basic.patternFillRect;fillStyle=diag;step=5;fillStrokeWidth=0.2;fillStrokeColor=#dddddd;labelPosition=center;align=center;" vertex="1" parent="l8_VYTfNV-PSis1PAyHx-10">
          <mxGeometry x="520" y="120" width="100" height="120" as="geometry" />
        </mxCell>
        <mxCell id="l8_VYTfNV-PSis1PAyHx-31" value="" style="edgeStyle=orthogonalEdgeStyle;rounded=0;orthogonalLoop=1;jettySize=auto;html=1;entryX=1;entryY=0.25;entryDx=0;entryDy=0;entryPerimeter=0;" edge="1" parent="l8_VYTfNV-PSis1PAyHx-10" source="l8_VYTfNV-PSis1PAyHx-29" target="l8_VYTfNV-PSis1PAyHx-22">
          <mxGeometry relative="1" as="geometry">
            <mxPoint x="700" y="150" as="targetPoint" />
          </mxGeometry>
        </mxCell>
        <mxCell id="l8_VYTfNV-PSis1PAyHx-29" value="" style="shape=actor;whiteSpace=wrap;html=1;fillColor=#CCE5FF;" vertex="1" parent="l8_VYTfNV-PSis1PAyHx-10">
          <mxGeometry x="740" y="120" width="40" height="60" as="geometry" />
        </mxCell>
        <mxCell id="l8_VYTfNV-PSis1PAyHx-27" value="" style="edgeStyle=orthogonalEdgeStyle;rounded=0;orthogonalLoop=1;jettySize=auto;html=1;" edge="1" parent="1" source="l8_VYTfNV-PSis1PAyHx-25" target="l8_VYTfNV-PSis1PAyHx-1">
          <mxGeometry relative="1" as="geometry">
            <mxPoint x="580" y="-1110" as="targetPoint" />
          </mxGeometry>
        </mxCell>
        <mxCell id="l8_VYTfNV-PSis1PAyHx-25" value="&lt;div&gt;&lt;br&gt;&lt;/div&gt;&lt;div&gt;&lt;br&gt;&lt;/div&gt;зовн&lt;div&gt;корист&lt;/div&gt;" style="shape=actor;whiteSpace=wrap;html=1;fillColor=#CCE5FF;" vertex="1" parent="1">
          <mxGeometry x="570" y="-1145" width="40" height="60" as="geometry" />
        </mxCell>
        <mxCell id="l8_VYTfNV-PSis1PAyHx-14" value="vlan 377" style="swimlane;startSize=30;" vertex="1" parent="1">
          <mxGeometry y="-360" width="820" height="480" as="geometry" />
        </mxCell>
        <mxCell id="l8_VYTfNV-PSis1PAyHx-32" value="RDP" style="verticalLabelPosition=middle;verticalAlign=middle;html=1;shape=mxgraph.basic.patternFillRect;fillStyle=diag;step=5;fillStrokeWidth=0.2;fillStrokeColor=#dddddd;labelPosition=center;align=center;" vertex="1" parent="l8_VYTfNV-PSis1PAyHx-14">
          <mxGeometry x="520" y="120" width="100" height="120" as="geometry" />
        </mxCell>
        <mxCell id="l8_VYTfNV-PSis1PAyHx-37" value="" style="edgeStyle=orthogonalEdgeStyle;rounded=0;orthogonalLoop=1;jettySize=auto;html=1;entryX=1.018;entryY=0.155;entryDx=0;entryDy=0;entryPerimeter=0;" edge="1" parent="l8_VYTfNV-PSis1PAyHx-14" source="l8_VYTfNV-PSis1PAyHx-35" target="l8_VYTfNV-PSis1PAyHx-32">
          <mxGeometry relative="1" as="geometry" />
        </mxCell>
        <mxCell id="l8_VYTfNV-PSis1PAyHx-35" value="" style="shape=actor;whiteSpace=wrap;html=1;fillColor=#CCE5FF;" vertex="1" parent="l8_VYTfNV-PSis1PAyHx-14">
          <mxGeometry x="740" y="110" width="40" height="60" as="geometry" />
        </mxCell>
        <mxCell id="l8_VYTfNV-PSis1PAyHx-17" value="" style="edgeStyle=orthogonalEdgeStyle;rounded=0;orthogonalLoop=1;jettySize=auto;html=1;" edge="1" parent="1" source="l8_VYTfNV-PSis1PAyHx-10" target="l8_VYTfNV-PSis1PAyHx-14">
          <mxGeometry relative="1" as="geometry">
            <mxPoint x="305" y="-345" as="targetPoint" />
          </mxGeometry>
        </mxCell>
        <mxCell id="l8_VYTfNV-PSis1PAyHx-19" value="" style="edgeStyle=orthogonalEdgeStyle;rounded=0;orthogonalLoop=1;jettySize=auto;html=1;" edge="1" parent="1" source="l8_VYTfNV-PSis1PAyHx-14" target="l8_VYTfNV-PSis1PAyHx-10">
          <mxGeometry relative="1" as="geometry">
            <mxPoint x="405" y="-665" as="targetPoint" />
          </mxGeometry>
        </mxCell>
        <mxCell id="l8_VYTfNV-PSis1PAyHx-20" value="VPN&lt;div&gt;route 377,378,99,40,10,?&lt;/div&gt;" style="edgeLabel;html=1;align=center;verticalAlign=middle;resizable=0;points=[];" vertex="1" connectable="0" parent="l8_VYTfNV-PSis1PAyHx-19">
          <mxGeometry x="0.1959" y="3" relative="1" as="geometry">
            <mxPoint x="1" as="offset" />
          </mxGeometry>
        </mxCell>
        <mxCell id="l8_VYTfNV-PSis1PAyHx-40" value="" style="edgeStyle=orthogonalEdgeStyle;rounded=0;orthogonalLoop=1;jettySize=auto;html=1;entryX=0.5;entryY=0;entryDx=0;entryDy=0;entryPerimeter=0;exitX=0.75;exitY=1;exitDx=0;exitDy=0;" edge="1" parent="1" source="l8_VYTfNV-PSis1PAyHx-29" target="l8_VYTfNV-PSis1PAyHx-32">
          <mxGeometry relative="1" as="geometry">
            <mxPoint x="660" y="-420" as="sourcePoint" />
            <mxPoint x="540" y="-420" as="targetPoint" />
          </mxGeometry>
        </mxCell>
        <mxCell id="l8_VYTfNV-PSis1PAyHx-41" value="" style="edgeStyle=orthogonalEdgeStyle;rounded=0;orthogonalLoop=1;jettySize=auto;html=1;entryX=0.9;entryY=0.703;entryDx=0;entryDy=0;entryPerimeter=0;exitX=0.25;exitY=0.2;exitDx=0;exitDy=0;exitPerimeter=0;" edge="1" parent="1" source="l8_VYTfNV-PSis1PAyHx-35" target="l8_VYTfNV-PSis1PAyHx-22">
          <mxGeometry relative="1" as="geometry">
            <mxPoint x="840" y="-430" as="sourcePoint" />
            <mxPoint x="720" y="-430" as="targetPoint" />
            <Array as="points">
              <mxPoint x="720" y="-238" />
              <mxPoint x="720" y="-576" />
            </Array>
          </mxGeometry>
        </mxCell>
      </root>
    </mxGraphModel>
  </diagram>
</mxfile>
